<svg width="266" height="264" viewBox="0 0 266 264" fill="none" xmlns="http://www.w3.org/2000/svg">
<path d="M198.293 139C198.293 195.19 154.557 240.5 100.897 240.5C47.2361 240.5 3.5 195.19 3.5 139C3.5 82.8103 47.2361 37.5 100.897 37.5C154.557 37.5 198.293 82.8103 198.293 139Z" fill="#663399" stroke="black" stroke-width="7"/>
<path d="M38.1034 138.879C37.787 141.586 36.785 143.678 35.0975 145.154C33.4218 146.619 31.1893 147.352 28.4003 147.352C25.3768 147.352 22.951 146.268 21.1229 144.1C19.3065 141.932 18.3983 139.031 18.3983 135.398V132.938C18.3983 130.559 18.8202 128.467 19.6639 126.662C20.5194 124.857 21.7264 123.475 23.285 122.514C24.8436 121.541 26.6483 121.055 28.6991 121.055C31.4178 121.055 33.5975 121.816 35.2382 123.34C36.8788 124.852 37.8339 126.949 38.1034 129.633H34.7108C34.4178 127.594 33.7792 126.117 32.7948 125.203C31.8221 124.289 30.4569 123.832 28.6991 123.832C26.5428 123.832 24.8495 124.629 23.619 126.223C22.4003 127.816 21.7909 130.084 21.7909 133.025V135.504C21.7909 138.281 22.371 140.49 23.5311 142.131C24.6913 143.771 26.3143 144.592 28.4003 144.592C30.2753 144.592 31.7108 144.17 32.7069 143.326C33.7147 142.471 34.3827 140.988 34.7108 138.879H38.1034ZM62.3964 147H59.0038V135.17H46.1014V147H42.7264V121.406H46.1014V132.41H59.0038V121.406H62.3964V147ZM82.8397 140.32H72.1171L69.7089 147H66.2284L76.0018 121.406H78.955L88.746 147H85.2831L82.8397 140.32ZM73.1366 137.543H81.8378L77.4784 125.572L73.1366 137.543ZM107.59 124.184H99.3632V147H96.0057V124.184H87.7968V121.406H107.59V124.184ZM117.187 138.932L117.68 142.307L118.4 139.266L123.463 121.406H126.31L131.25 139.266L131.953 142.359L132.498 138.914L136.471 121.406H139.863L133.658 147H130.582L125.308 128.35L124.904 126.398L124.5 128.35L119.033 147H115.957L109.769 121.406H113.144L117.187 138.932ZM151.43 134.256L158.109 121.406H161.941L153.117 137.455V147H149.742V137.455L140.918 121.406H144.785L151.43 134.256ZM172.506 135.592C169.611 134.76 167.502 133.74 166.178 132.533C164.865 131.314 164.209 129.814 164.209 128.033C164.209 126.018 165.012 124.354 166.617 123.041C168.234 121.717 170.332 121.055 172.91 121.055C174.668 121.055 176.232 121.395 177.603 122.074C178.986 122.754 180.053 123.691 180.803 124.887C181.564 126.082 181.945 127.389 181.945 128.807H178.553C178.553 127.26 178.06 126.047 177.076 125.168C176.092 124.277 174.703 123.832 172.91 123.832C171.246 123.832 169.945 124.201 169.008 124.939C168.082 125.666 167.619 126.68 167.619 127.98C167.619 129.023 168.058 129.908 168.937 130.635C169.828 131.35 171.334 132.006 173.455 132.604C175.588 133.201 177.252 133.863 178.447 134.59C179.654 135.305 180.545 136.143 181.119 137.104C181.705 138.064 181.998 139.195 181.998 140.496C181.998 142.57 181.189 144.234 179.572 145.488C177.955 146.73 175.793 147.352 173.086 147.352C171.328 147.352 169.687 147.018 168.164 146.35C166.641 145.67 165.463 144.744 164.631 143.572C163.81 142.4 163.4 141.07 163.4 139.582H166.793C166.793 141.129 167.361 142.354 168.498 143.256C169.646 144.146 171.176 144.592 173.086 144.592C174.867 144.592 176.232 144.229 177.182 143.502C178.131 142.775 178.605 141.785 178.605 140.531C178.605 139.277 178.166 138.311 177.287 137.631C176.408 136.939 174.814 136.26 172.506 135.592Z" fill="black" fill-opacity="0.56"/>
<rect width="52.9962" height="46" fill="#000C24"/>
<rect x="69.3027" y="172" width="52.9962" height="46" fill="#000C24"/>
<rect x="16.3065" y="218" width="52.9962" height="46" fill="#000C24"/>
<rect x="47.9004" y="46" width="52.9962" height="46" fill="#000C24"/>
</svg>
